<svg xmlns="http://www.w3.org/2000/svg" viewBox="0 0 83 83"><defs><style>.cls-1{fill:#fff;}.cls-1,.cls-2{stroke:#231815;stroke-miterlimit:10;stroke-width:2px;}.cls-2{fill:#231815;}</style></defs><title>자산 1</title><g id="레이어_2" data-name="레이어 2"><g id="레이어_1-2" data-name="레이어 1"><path class="cls-1" d="M82,8.58V74.42C82,78.61,78.19,82,73.47,82H9.53C4.81,82,1,78.61,1,74.42V8.58a.43.43,0,0,1,0-.12c.06-4,3.67-7.3,8.18-7.44a1.92,1.92,0,0,1,.34,0H73.47C78.19,1,82,4.39,82,8.58Z"/><path class="cls-2" d="M71.88,13.58v9.75c0,3.33-2,6.44-4.32,8.77L53.42,44.4a5.18,5.18,0,0,0-1.8,3.86V61.88H31.38V40.22A7,7,0,0,1,34,34.82L49.17,22.45C50.24,21,49,19,47,19H1V9.85c0-.49,0-1,0-1.39.06-4,3.67-7.3,8.18-7.44H30.95C35,1,27.44,1,41.5,1H54.92C63.67,1,71.88,6.75,71.88,13.58Z"/><polygon class="cls-2" points="25.67 56.75 1 73 1 56.75 25.67 40.5 25.67 56.75"/><path class="cls-2" d="M56.75,56.75,82,73V55L64.44,43.22a2.23,2.23,0,0,0-2.73.19L57.8,46.93a3.17,3.17,0,0,0-1.05,2.36Z"/><rect class="cls-2" x="31.37" y="67.25" width="20.25" height="14.75"/></g></g></svg>